<svg width="51" height="51" viewBox="0 0 51 51" fill="none" xmlns="http://www.w3.org/2000/svg">
<path d="M38.25 33.6534C41.3438 35.2076 43.9963 37.7017 45.9324 40.8205C46.3158 41.4381 46.5075 41.7469 46.5738 42.1745C46.7085 43.0435 46.1142 44.1119 45.3049 44.4558C44.9066 44.625 44.4586 44.625 43.5625 44.625M34 24.506C37.1487 22.9413 39.3125 19.6921 39.3125 15.9375C39.3125 12.183 37.1487 8.93377 34 7.36902M29.75 15.9375C29.75 21.2188 25.4687 25.5 20.1875 25.5C14.9063 25.5 10.625 21.2188 10.625 15.9375C10.625 10.6563 14.9063 6.37503 20.1875 6.37503C25.4687 6.37503 29.75 10.6563 29.75 15.9375ZM5.43838 40.244C8.82629 35.1572 14.1724 31.875 20.1875 31.875C26.2026 31.875 31.5488 35.1572 34.9367 40.244C35.6788 41.3584 36.0499 41.9156 36.0072 42.6274C35.974 43.1816 35.6107 43.86 35.1678 44.1949C34.5991 44.625 33.8169 44.625 32.2525 44.625H8.12253C6.55813 44.625 5.77594 44.625 5.2072 44.1949C4.76437 43.86 4.40108 43.1816 4.36782 42.6274C4.32509 41.9156 4.69619 41.3584 5.43838 40.244Z" stroke="white" stroke-width="2" stroke-linecap="round" stroke-linejoin="round"/>
</svg>
