<svg width="51" height="51" viewBox="0 0 51 51" fill="none" xmlns="http://www.w3.org/2000/svg">
<path d="M29.2059 5.59643L45.203 15.9945C45.7682 16.3619 46.0508 16.5456 46.2556 16.7907C46.4369 17.0076 46.573 17.2585 46.6561 17.5287C46.75 17.8339 46.75 18.171 46.75 18.8452V34.4251C46.75 37.9954 46.75 39.7806 46.0552 41.1443C45.444 42.3438 44.4687 43.3191 43.2692 43.9303C41.9055 44.6251 40.1203 44.6251 36.55 44.6251H14.45C10.8797 44.6251 9.0945 44.6251 7.73081 43.9303C6.53128 43.3191 5.55603 42.3438 4.94483 41.1443C4.25 39.7806 4.25 37.9954 4.25 34.4251V18.8452C4.25 18.171 4.25 17.8339 4.34386 17.5287C4.42695 17.2585 4.56311 17.0076 4.74438 16.7907C4.94915 16.5456 5.23178 16.3619 5.79704 15.9945L21.7941 5.59644M29.2059 5.59643C27.8645 4.72453 27.1938 4.28857 26.4712 4.11895C25.8324 3.96902 25.1676 3.96902 24.5288 4.11895C23.8062 4.28857 23.1355 4.72453 21.7941 5.59644M29.2059 5.59643L42.3643 14.1494C43.826 15.0995 44.5568 15.5745 44.8099 16.1769C45.0311 16.7034 45.0311 17.2968 44.8099 17.8232C44.5568 18.4257 43.826 18.9007 42.3643 19.8508L29.2059 28.4037C27.8645 29.2756 27.1938 29.7116 26.4712 29.8812C25.8324 30.0312 25.1676 30.0312 24.5288 29.8812C23.8062 29.7116 23.1355 29.2756 21.7941 28.4037L8.6357 19.8508C7.17403 18.9007 6.44319 18.4257 6.19007 17.8232C5.96886 17.2968 5.96886 16.7034 6.19007 16.1769C6.44319 15.5745 7.17403 15.0995 8.6357 14.1494L21.7941 5.59644M45.6875 40.3751L31.5715 27.6251M19.4285 27.6251L5.3125 40.3751" stroke="white" stroke-width="2" stroke-linecap="round" stroke-linejoin="round"/>
</svg>
