<svg width="51" height="51" viewBox="0 0 51 51" fill="none" xmlns="http://www.w3.org/2000/svg">
<path d="M44.6255 21.2494H6.37549M34.0005 4.24939V12.7494M17.0005 4.24939V12.7494M19.1255 33.9994L23.3755 38.2494L32.938 28.6869M16.5755 46.7494H34.4255C37.9958 46.7494 39.781 46.7494 41.1447 46.0546C42.3442 45.4434 43.3195 44.4681 43.9307 43.2686C44.6255 41.9049 44.6255 40.1197 44.6255 36.5494V18.6994C44.6255 15.1291 44.6255 13.3439 43.9307 11.9802C43.3195 10.7807 42.3442 9.80541 41.1447 9.19422C39.781 8.49939 37.9958 8.49939 34.4255 8.49939H16.5755C13.0052 8.49939 11.22 8.49939 9.8563 9.19422C8.65677 9.80541 7.68151 10.7807 7.07032 11.9802C6.37549 13.3439 6.37549 15.1291 6.37549 18.6994V36.5494C6.37549 40.1197 6.37549 41.9049 7.07032 43.2686C7.68151 44.4681 8.65677 45.4434 9.8563 46.0546C11.22 46.7494 13.0052 46.7494 16.5755 46.7494Z" stroke="white" stroke-width="2" stroke-linecap="round" stroke-linejoin="round"/>
</svg>
